<?xml version="1.0" encoding="UTF-8" standalone="no"?>
<svg
   xmlns:dc="http://purl.org/dc/elements/1.1/"
   xmlns:cc="http://creativecommons.org/ns#"
   xmlns:rdf="http://www.w3.org/1999/02/22-rdf-syntax-ns#"
   xmlns:svg="http://www.w3.org/2000/svg"
   xmlns="http://www.w3.org/2000/svg"
   xmlns:sodipodi="http://sodipodi.sourceforge.net/DTD/sodipodi-0.dtd"
   xmlns:inkscape="http://www.inkscape.org/namespaces/inkscape"
   inkscape:version="1.0 (6e3e5246a0, 2020-05-07)"
   sodipodi:docname="github.svg"
   id="svg6"
   version="1.1"
   viewBox="0 0 24 24"
   role="img">
  <metadata
     id="metadata12">
    <rdf:RDF>
      <cc:Work
         rdf:about="">
        <dc:format>image/svg+xml</dc:format>
        <dc:type
           rdf:resource="http://purl.org/dc/dcmitype/StillImage" />
      </cc:Work>
    </rdf:RDF>
  </metadata>
  <defs
     id="defs10" />
  <sodipodi:namedview
     inkscape:current-layer="svg6"
     inkscape:window-maximized="1"
     inkscape:window-y="27"
     inkscape:window-x="72"
     inkscape:cy="11.972414"
     inkscape:cx="12"
     inkscape:zoom="36.25"
     showgrid="false"
     id="namedview8"
     inkscape:window-height="1016"
     inkscape:window-width="1848"
     inkscape:pageshadow="2"
     inkscape:pageopacity="0"
     guidetolerance="10"
     gridtolerance="10"
     objecttolerance="10"
     borderopacity="1"
     bordercolor="#666666"
     pagecolor="#ffffff" />
  <title
     id="title2">GitHub icon</title>
  <path
     id="path4"
     d="M12 .297c-6.63 0-12 5.373-12 12 0 5.303 3.438 9.8 8.205 11.385.6.113.82-.258.82-.577 0-.285-.01-1.04-.015-2.04-3.338.724-4.042-1.61-4.042-1.61C4.422 18.07 3.633 17.7 3.633 17.7c-1.087-.744.084-.729.084-.729 1.205.084 1.838 1.236 1.838 1.236 1.07 1.835 2.809 1.305 3.495.998.108-.776.417-1.305.76-1.605-2.665-.3-5.466-1.332-5.466-5.93 0-1.31.465-2.38 1.235-3.22-.135-.303-.54-1.523.105-3.176 0 0 1.005-.322 3.3 1.23.96-.267 1.98-.399 3-.405 1.02.006 2.04.138 3 .405 2.28-1.552 3.285-1.23 3.285-1.23.645 1.653.24 2.873.12 3.176.765.84 1.23 1.91 1.23 3.22 0 4.61-2.805 5.625-5.475 5.92.42.36.81 1.096.81 2.22 0 1.606-.015 2.896-.015 3.286 0 .315.21.69.825.57C20.565 22.092 24 17.592 24 12.297c0-6.627-5.373-12-12-12" />
  <path
     id="path20"
     d="M 8.2344828,23.672267 C 7.9665126,23.602244 7.0742772,23.234518 6.623603,23.008359 5.2031498,22.295542 3.8394582,21.212192 2.7974866,19.968799 1.2591117,18.133043 0.29711495,15.824737 0.06853389,13.42069 0.01934163,12.903322 0.01250545,11.771905 0.05568337,11.293874 0.34897252,8.046813 1.8656725,5.1432927 4.3458463,3.0809274 6.9071592,0.95109183 10.245315,-0.01745622 13.544828,0.41189206 19.136475,1.1395038 23.466189,5.6767898 23.944357,11.309989 c 0.04272,0.503213 0.03577,1.596049 -0.01342,2.110701 -0.440157,4.605458 -3.456437,8.500374 -7.828771,10.109272 -0.306078,0.112628 -0.410497,0.138888 -0.550306,0.138398 -0.295217,-0.001 -0.48837,-0.133697 -0.571216,-0.392319 -0.0247,-0.0771 -0.03128,-0.587415 -0.02598,-2.013793 0.0064,-1.715283 0.0022,-1.935896 -0.04059,-2.1588 -0.114749,-0.597407 -0.290214,-0.997104 -0.601825,-1.370917 l -0.107983,-0.129537 0.09097,-0.01421 c 0.05003,-0.0078 0.258557,-0.03987 0.463385,-0.07125 1.211455,-0.185551 2.182381,-0.547848 2.924138,-1.09113 0.246298,-0.180395 0.663453,-0.590946 0.853721,-0.840206 0.677943,-0.888137 1.018915,-2.004624 1.091004,-3.572414 0.02018,-0.438911 -0.01791,-0.975572 -0.09692,-1.365517 -0.146646,-0.7236971 -0.5198,-1.5002554 -0.972631,-2.0240907 l -0.140067,-0.1620306 0.04992,-0.182797 C 18.666664,7.5510767 18.688344,6.869189 18.536144,6.1293076 18.476748,5.8405699 18.388228,5.5336783 18.313846,5.3586207 L 18.26403,5.2413793 h -0.25182 c -0.302816,0 -0.687772,0.074273 -1.078355,0.2080579 -0.382999,0.1311865 -1.079649,0.4801942 -1.563569,0.7833167 L 14.975054,6.4803228 14.638051,6.3997846 C 14.265412,6.3107299 13.63892,6.2025393 13.172414,6.1466797 12.764193,6.0977992 11.208221,6.0977992 10.8,6.1466797 10.3306,6.2028858 9.7062447,6.3109109 9.3271236,6.4015148 L 8.9828817,6.4837829 8.8359674,6.3862375 C 7.9869079,5.8224938 7.0787512,5.4079236 6.4185131,5.2826783 6.1883812,5.2390232 5.7472977,5.2275101 5.6903777,5.2636728 5.6412563,5.2948811 5.4792767,5.8117092 5.4034069,6.1793103 5.3469426,6.4528891 5.337931,6.5743851 5.337931,7.062069 c 0,0.5940855 0.028479,0.8121682 0.1573098,1.2046127 l 0.056984,0.1735848 -0.079561,0.099511 C 4.8515724,9.3166083 4.5631793,9.9320797 4.3941961,10.841379 c -0.066698,0.358899 -0.065569,1.483597 0.00201,1.997371 0.357872,2.720977 1.8366113,4.189941 4.7072477,4.676132 0.1744827,0.02955 0.3948237,0.06239 0.4896469,0.07299 l 0.1724055,0.01926 -0.091215,0.100965 c -0.145659,0.161227 -0.2648635,0.34785 -0.3824132,0.598694 -0.104965,0.223987 -0.2435978,0.693603 -0.2435978,0.82518 0,0.05392 -0.034194,0.07521 -0.2413793,0.150254 -0.4542116,0.16453 -0.6711752,0.20479 -1.1103449,0.20604 -0.4147688,0.0012 -0.544142,-0.0206 -0.8884761,-0.149599 C 6.5722874,19.250327 6.2445639,19.02463 6.0275862,18.801151 5.8411239,18.609102 5.79332,18.545156 5.500853,18.096552 5.0374709,17.385788 4.2783561,16.934419 3.6078116,16.970952 c -0.6204348,0.0338 -0.594395,0.329996 0.068171,0.775421 0.5375211,0.361361 0.9393211,0.905156 1.2882199,1.743475 0.4009972,0.963498 1.2281181,1.559913 2.3572477,1.699748 0.3188298,0.03948 1.0112373,0.01313 1.3888949,-0.05286 L 8.9931034,21.087331 9,21.791942 c 0.013366,1.36555 0.010425,1.467204 -0.045524,1.573575 -0.071025,0.135034 -0.1250665,0.191004 -0.2420894,0.250731 -0.1165357,0.05948 -0.3568632,0.08765 -0.4779037,0.05602 z"
     style="fill:#ffffff;stroke-width:0.0275862" />
</svg>
