<?xml version="1.0" encoding="UTF-8" standalone="no"?>
<svg
   xmlns:dc="http://purl.org/dc/elements/1.1/"
   xmlns:cc="http://creativecommons.org/ns#"
   xmlns:rdf="http://www.w3.org/1999/02/22-rdf-syntax-ns#"
   xmlns:svg="http://www.w3.org/2000/svg"
   xmlns="http://www.w3.org/2000/svg"
   xmlns:sodipodi="http://sodipodi.sourceforge.net/DTD/sodipodi-0.dtd"
   xmlns:inkscape="http://www.inkscape.org/namespaces/inkscape"
   inkscape:version="1.0 (6e3e5246a0, 2020-05-07)"
   sodipodi:docname="instagram.svg"
   id="svg111"
   version="1.1"
   viewBox="0 0 24 24"
   role="img">
  <metadata
     id="metadata117">
    <rdf:RDF>
      <cc:Work
         rdf:about="">
        <dc:format>image/svg+xml</dc:format>
        <dc:type
           rdf:resource="http://purl.org/dc/dcmitype/StillImage" />
      </cc:Work>
    </rdf:RDF>
  </metadata>
  <defs
     id="defs115" />
  <sodipodi:namedview
     inkscape:current-layer="svg111"
     inkscape:window-maximized="1"
     inkscape:window-y="27"
     inkscape:window-x="72"
     inkscape:cy="11.972414"
     inkscape:cx="12"
     inkscape:zoom="36.25"
     showgrid="false"
     id="namedview113"
     inkscape:window-height="1016"
     inkscape:window-width="1848"
     inkscape:pageshadow="2"
     inkscape:pageopacity="0"
     guidetolerance="10"
     gridtolerance="10"
     objecttolerance="10"
     borderopacity="1"
     bordercolor="#666666"
     pagecolor="#ffffff" />
  <title
     id="title107">Instagram icon</title>
  <path
     id="path109"
     d="M12 0C8.74 0 8.333.015 7.053.072 5.775.132 4.905.333 4.14.63c-.789.306-1.459.717-2.126 1.384S.935 3.35.63 4.14C.333 4.905.131 5.775.072 7.053.012 8.333 0 8.74 0 12s.015 3.667.072 4.947c.06 1.277.261 2.148.558 2.913.306.788.717 1.459 1.384 2.126.667.666 1.336 1.079 2.126 1.384.766.296 1.636.499 2.913.558C8.333 23.988 8.74 24 12 24s3.667-.015 4.947-.072c1.277-.06 2.148-.262 2.913-.558.788-.306 1.459-.718 2.126-1.384.666-.667 1.079-1.335 1.384-2.126.296-.765.499-1.636.558-2.913.06-1.28.072-1.687.072-4.947s-.015-3.667-.072-4.947c-.06-1.277-.262-2.149-.558-2.913-.306-.789-.718-1.459-1.384-2.126C21.319 1.347 20.651.935 19.86.63c-.765-.297-1.636-.499-2.913-.558C15.667.012 15.26 0 12 0zm0 2.16c3.203 0 3.585.016 4.85.071 1.17.055 1.805.249 2.227.415.562.217.96.477 1.382.896.419.42.679.819.896 1.381.164.422.36 1.057.413 2.227.057 1.266.07 1.646.07 4.85s-.015 3.585-.074 4.85c-.061 1.17-.256 1.805-.421 2.227-.224.562-.479.96-.899 1.382-.419.419-.824.679-1.38.896-.42.164-1.065.36-2.235.413-1.274.057-1.649.07-4.859.07-3.211 0-3.586-.015-4.859-.074-1.171-.061-1.816-.256-2.236-.421-.569-.224-.96-.479-1.379-.899-.421-.419-.69-.824-.9-1.38-.165-.42-.359-1.065-.42-2.235-.045-1.26-.061-1.649-.061-4.844 0-3.196.016-3.586.061-4.861.061-1.17.255-1.814.42-2.234.21-.57.479-.96.9-1.381.419-.419.81-.689 1.379-.898.42-.166 1.051-.361 2.221-.421 1.275-.045 1.65-.06 4.859-.06l.045.03zm0 3.678c-3.405 0-6.162 2.76-6.162 6.162 0 3.405 2.76 6.162 6.162 6.162 3.405 0 6.162-2.76 6.162-6.162 0-3.405-2.76-6.162-6.162-6.162zM12 16c-2.21 0-4-1.79-4-4s1.79-4 4-4 4 1.79 4 4-1.79 4-4 4zm7.846-10.405c0 .795-.646 1.44-1.44 1.44-.795 0-1.44-.646-1.44-1.44 0-.794.646-1.439 1.44-1.439.793-.001 1.44.645 1.44 1.439z" />
  <path
     id="path133"
     d="M 9.5310345,23.969743 C 7.0075468,23.944897 6.2898108,23.899766 5.3517241,23.70695 3.7729305,23.382442 2.5044203,22.627272 1.5576743,21.448276 0.83239495,20.545075 0.36890119,19.384093 0.18103455,18 0.05550029,17.075136 0.02630313,15.939891 0.02630313,11.983731 c 0,-4.6205903 0.03728182,-5.5462336 0.26762733,-6.6447236 C 0.46676847,4.5147641 0.80101172,3.6666033 1.1966622,3.0482759 1.5220144,2.5398114 2.0480077,1.9608705 2.5502645,1.5584169 3.5592579,0.74992019 4.8609492,0.27550003 6.4827586,0.12516294 7.3921503,0.04086492 10.958167,-0.00313625 14.22069,0.02968442 c 2.769172,0.02785763 3.447691,0.06628759 4.346084,0.2461537 1.65199,0.33074257 2.923467,1.08015038 3.889087,2.29222518 0.599307,0.7522672 1.030983,1.7137323 1.252348,2.7893367 0.228152,1.1085768 0.264988,2.037565 0.264953,6.681999 -2.7e-5,3.927023 -0.02878,5.038953 -0.154117,5.960601 -0.187808,1.381006 -0.643983,2.528276 -1.36561,3.434483 -1.18582,1.489131 -2.836662,2.280947 -5.115504,2.453619 -1.07659,0.08157 -4.343586,0.115739 -7.8068965,0.08164 z m 7.0758625,-2.173602 c 1.050303,-0.05772 1.684701,-0.158977 2.278184,-0.363618 0.655273,-0.225948 1.089518,-0.494235 1.557547,-0.962291 0.748978,-0.74902 1.132269,-1.641825 1.280667,-2.983075 0.09601,-0.86772 0.111188,-1.622607 0.111188,-5.528536 0,-4.5803427 -0.02594,-5.3029893 -0.223283,-6.22069 C 21.41203,4.811736 21.052911,4.1203625 20.466274,3.5337258 19.88141,2.9488621 19.185976,2.5876119 18.262069,2.3887297 17.44027,2.2118275 16.895112,2.1879104 12.772414,2.147888 7.2589123,2.0943639 6.2066279,2.1462926 5.0758621,2.5277015 4.3660745,2.7671139 3.9507857,3.0288684 3.4334303,3.5629181 2.962712,4.0488259 2.7475222,4.4046234 2.5132967,5.0842772 2.2946394,5.7187567 2.1981497,6.3539903 2.1458333,7.5034483 c -0.045781,1.0058607 -0.045781,7.9320707 0,8.9379307 0.057005,1.252461 0.1680029,1.925029 0.4317731,2.616225 0.3612524,0.946643 1.0414899,1.696918 1.9431246,2.143192 0.8279849,0.40982 1.6591189,0.554154 3.5620276,0.618581 0.9828271,0.03328 7.8357594,0.01459 8.5241384,-0.02324 z"
     style="fill:#ffffff;stroke-width:0.0275862" />
  <path
     id="path135"
     d="M 11.544828,18.13487 C 10.658619,18.041068 10.023732,17.865796 9.305888,17.516773 7.6785865,16.725562 6.4594788,15.21506 6.0315969,13.459852 5.906816,12.94799 5.8648908,12.582174 5.8642873,12 5.8632553,11.00433 6.0476285,10.201793 6.483227,9.305888 7.274438,7.6785865 8.7849399,6.4594788 10.540148,6.0315969 11.058279,5.9052877 11.418162,5.8639625 12,5.8639625 c 0.996524,0 1.799347,0.1842345 2.690217,0.6173597 1.63134,0.7931288 2.849867,2.3018259 3.278186,4.0588258 0.125495,0.514789 0.166986,0.877523 0.166986,1.459852 0,0.999287 -0.183955,1.80133 -0.616896,2.689655 -0.60067,1.23248 -1.600636,2.232634 -2.828276,2.828807 -0.846246,0.410959 -1.614511,0.596821 -2.552286,0.617462 -0.265517,0.0058 -0.532414,0.0054 -0.593103,-0.0011 z m 1.282758,-2.203164 c 0.802749,-0.178572 1.485199,-0.559368 2.049777,-1.143742 0.55155,-0.570889 0.892989,-1.21199 1.058753,-1.987964 0.07148,-0.334614 0.07148,-1.265386 0,-1.6 C 15.770352,10.424026 15.428913,9.7829252 14.877363,9.2120359 14.304363,8.6189446 13.615144,8.2380157 12.8,8.0638836 c -0.334614,-0.071481 -1.265386,-0.071481 -1.6,0 C 10.424026,8.2296481 9.7829252,8.5710866 9.2120359,9.1226372 8.6189446,9.6956372 8.2380157,10.384856 8.0638836,11.2 c -0.071481,0.334614 -0.071481,1.265386 0,1.6 0.1631948,0.763945 0.504419,1.411221 1.0358127,1.964858 0.6249117,0.651069 1.3454707,1.035974 2.2382347,1.19561 0.288084,0.05151 1.208696,0.03374 1.489655,-0.02876 z"
     style="fill:#ffffff;stroke-width:0.0275862" />
  <path
     id="path137"
     d="M 18.234483,7.0030557 C 17.833154,6.9621801 17.4572,6.7303154 17.224976,6.3804551 16.916637,5.9159222 16.910026,5.3006663 17.208417,4.8393895 c 0.61665,-0.9532676 1.997822,-0.8598503 2.48852,0.1683143 0.255424,0.5351925 0.124686,1.1951174 -0.318989,1.6101528 -0.330873,0.3095164 -0.692027,0.4311779 -1.143465,0.3851991 z"
     style="fill:#ffffff;stroke-width:0.0275862" />
</svg>
