<?xml version="1.0" encoding="UTF-8" standalone="no"?>
<svg
   xmlns:dc="http://purl.org/dc/elements/1.1/"
   xmlns:cc="http://creativecommons.org/ns#"
   xmlns:rdf="http://www.w3.org/1999/02/22-rdf-syntax-ns#"
   xmlns:svg="http://www.w3.org/2000/svg"
   xmlns="http://www.w3.org/2000/svg"
   xmlns:sodipodi="http://sodipodi.sourceforge.net/DTD/sodipodi-0.dtd"
   xmlns:inkscape="http://www.inkscape.org/namespaces/inkscape"
   inkscape:version="1.0 (6e3e5246a0, 2020-05-07)"
   sodipodi:docname="twitter.svg"
   id="svg123"
   version="1.1"
   viewBox="0 0 24 24"
   role="img">
  <metadata
     id="metadata129">
    <rdf:RDF>
      <cc:Work
         rdf:about="">
        <dc:format>image/svg+xml</dc:format>
        <dc:type
           rdf:resource="http://purl.org/dc/dcmitype/StillImage" />
      </cc:Work>
    </rdf:RDF>
  </metadata>
  <defs
     id="defs127" />
  <sodipodi:namedview
     inkscape:current-layer="svg123"
     inkscape:window-maximized="1"
     inkscape:window-y="27"
     inkscape:window-x="72"
     inkscape:cy="11.972414"
     inkscape:cx="12"
     inkscape:zoom="36.25"
     showgrid="false"
     id="namedview125"
     inkscape:window-height="1016"
     inkscape:window-width="1848"
     inkscape:pageshadow="2"
     inkscape:pageopacity="0"
     guidetolerance="10"
     gridtolerance="10"
     objecttolerance="10"
     borderopacity="1"
     bordercolor="#666666"
     pagecolor="#ffffff" />
  <title
     id="title119">Twitter icon</title>
  <path
     id="path121"
     d="M23.954 4.569c-.885.389-1.83.654-2.825.775 1.014-.611 1.794-1.574 2.163-2.723-.951.555-2.005.959-3.127 1.184-.896-.959-2.173-1.559-3.591-1.559-2.717 0-4.92 2.203-4.92 4.917 0 .39.045.765.127 1.124C7.691 8.094 4.066 6.13 1.64 3.161c-.427.722-.666 1.561-.666 2.475 0 1.71.87 3.213 2.188 4.096-.807-.026-1.566-.248-2.228-.616v.061c0 2.385 1.693 4.374 3.946 4.827-.413.111-.849.171-1.296.171-.314 0-.615-.03-.916-.086.631 1.953 2.445 3.377 4.604 3.417-1.68 1.319-3.809 2.105-6.102 2.105-.39 0-.779-.023-1.17-.067 2.189 1.394 4.768 2.209 7.557 2.209 9.054 0 13.999-7.496 13.999-13.986 0-.209 0-.42-.015-.63.961-.689 1.8-1.56 2.46-2.548l-.047-.02z" />
  <path
     id="path131"
     d="M 6.5793103,21.708658 C 4.3753884,21.540021 2.3357158,20.902076 0.43328679,19.786377 0.23918075,19.672542 0.08400833,19.576616 0.08845921,19.57321 c 0.0044509,-0.0034 0.12602355,0.0052 0.27016148,0.01913 C 0.73707181,19.6289 2.0443113,19.60014 2.4275862,19.54681 3.2307487,19.435059 4.0115506,19.239004 4.7128265,18.972998 5.4710251,18.6854 6.4210552,18.165152 7.0344828,17.70163 L 7.2965517,17.503597 7.062069,17.484797 C 6.1169777,17.409023 5.2609305,17.105559 4.5241379,16.585116 4.1836077,16.344578 3.5951327,15.756592 3.3587426,15.42069 3.0922097,15.041956 2.6622732,14.183704 2.7134464,14.13253 c 0.00669,-0.0067 0.1401975,0.0027 0.2966777,0.02091 0.4046102,0.04704 1.1431667,0.01992 1.5278069,-0.05609 C 4.7048276,14.06437 4.8511081,14.02793 4.8629986,14.01638 4.8748896,14.00483 4.7584894,13.96233 4.6043321,13.92193 2.9579501,13.490449 1.616899,12.178035 1.1441729,10.535657 1.0470951,10.198382 0.98228017,9.811597 0.9523496,9.3909459 L 0.93453054,9.1405123 1.1500239,9.2458229 C 1.442411,9.3887112 1.774489,9.507699 2.137931,9.5998028 2.4520402,9.6794047 2.9635669,9.7509139 3.0970279,9.7338808 3.1679026,9.7248353 3.1556756,9.7107258 2.9261848,9.5367385 1.9862721,8.8241468 1.3332875,7.784411 1.0873621,6.6088138 0.99257186,6.155688 0.96878221,5.4755964 1.0312199,5.0038372 1.1067557,4.4331123 1.261165,3.9300003 1.5168814,3.4214057 L 1.6340477,3.1883734 1.706679,3.2717679 C 2.1265585,3.7538693 2.4086724,4.0555808 2.7338386,4.3702808 4.852429,6.42068 7.5180877,7.7396152 10.401571,8.1641804 c 0.340446,0.050128 0.625247,0.080379 1.1886,0.1262546 l 0.21086,0.017171 -0.03637,-0.1744927 c -0.319329,-1.5321923 0.157016,-3.1788612 1.253138,-4.3319572 0.906553,-0.9536739 2.056939,-1.4762934 3.368404,-1.5302639 1.28817,-0.053012 2.498143,0.3894931 3.486841,1.2751892 l 0.300634,0.2693141 0.182124,-0.035273 c 0.65499,-0.1268539 1.598241,-0.4615195 2.347642,-0.8329437 0.295862,-0.1466377 0.541329,-0.2632403 0.545481,-0.2591171 0.0042,0.00412 -0.04119,0.1268351 -0.100769,0.2726929 -0.36191,0.886067 -0.983953,1.6565713 -1.777575,2.2018245 -0.133765,0.091902 -0.236917,0.1733878 -0.229226,0.1810789 0.02412,0.024121 0.753459,-0.1028353 1.149683,-0.2001261 0.456143,-0.112003 0.89621,-0.2513481 1.318462,-0.4174842 0.172124,-0.067723 0.319531,-0.1165538 0.327571,-0.1085138 0.0191,0.019103 -0.322471,0.4943768 -0.557393,0.775569 -0.483277,0.578464 -1.049167,1.1234045 -1.616461,1.5566205 l -0.232187,0.17731 0.0098,0.4157934 c 0.03612,1.5400293 -0.272401,3.3503212 -0.841902,4.9399312 -0.940756,2.625863 -2.648836,4.972448 -4.781645,6.569088 -2.01666,1.509691 -4.273464,2.357293 -7.0068962,2.631622 -0.3959674,0.03974 -1.9249473,0.05626 -2.3310345,0.02519 z"
     style="fill:#ffffff;stroke-width:0.0275862" />
</svg>
